<?xml version="1.0" encoding="UTF-8" standalone="no"?>
<!DOCTYPE svg PUBLIC "-//W3C//DTD SVG 1.1//EN" "http://www.w3.org/Graphics/SVG/1.1/DTD/svg11.dtd">
<svg width="100%" height="100%" viewBox="0 0 737 124" version="1.1" xmlns="http://www.w3.org/2000/svg" xmlns:xlink="http://www.w3.org/1999/xlink" xml:space="preserve" xmlns:serif="http://www.serif.com/" style="fill-rule:evenodd;clip-rule:evenodd;stroke-linejoin:round;stroke-miterlimit:2;">
    <g transform="matrix(1,0,0,1,-11537,-265.77)">
        <g transform="matrix(1,0,0,1,-0.420041,-0.268066)">
            <g transform="matrix(2.13638,0,0,1.72482,-3662.7,-37.7817)">
                <g transform="matrix(0.695514,0,0,0.850088,6825.59,-141.966)">
                    <path d="M584.997,421.856L584.997,457.556L588.397,457.556L588.397,440.556L605.497,440.556L605.497,437.656L588.397,437.656L588.397,424.756L607.647,424.756L607.647,421.856L584.997,421.856Z" style="fill:rgb(47,41,43);fill-rule:nonzero;"/>
                </g>
                <g transform="matrix(0.695514,0,0,0.850088,6824.8,-141.966)">
                    <path d="M612.247,431.756L612.247,457.556L615.397,457.556L615.397,443.806C615.397,442.44 615.63,441.181 616.097,440.031C616.564,438.881 617.222,437.89 618.072,437.056C618.922,436.223 619.93,435.581 621.097,435.131C622.264,434.681 623.564,434.49 624.997,434.556L624.997,431.406C622.664,431.306 620.655,431.823 618.972,432.956C617.289,434.09 616.047,435.706 615.247,437.806L615.147,437.806L615.147,431.756L612.247,431.756Z" style="fill:rgb(47,41,43);fill-rule:nonzero;"/>
                </g>
                <g transform="matrix(0.695514,0,0,0.850088,6824.95,-141.966)">
                    <path d="M628.697,439.656L631.847,439.656C631.914,437.556 632.58,436.031 633.847,435.081C635.114,434.131 636.747,433.656 638.747,433.656C639.68,433.656 640.555,433.731 641.372,433.881C642.189,434.031 642.905,434.306 643.522,434.706C644.139,435.106 644.622,435.648 644.972,436.331C645.322,437.015 645.497,437.89 645.497,438.956C645.497,439.656 645.405,440.223 645.222,440.656C645.039,441.09 644.78,441.431 644.447,441.681C644.114,441.931 643.697,442.106 643.197,442.206C642.697,442.306 642.114,442.39 641.447,442.456C639.747,442.656 638.072,442.865 636.422,443.081C634.772,443.298 633.289,443.673 631.972,444.206C630.655,444.74 629.597,445.515 628.797,446.531C627.997,447.548 627.597,448.956 627.597,450.756C627.597,452.056 627.822,453.181 628.272,454.131C628.722,455.081 629.339,455.865 630.122,456.481C630.905,457.098 631.822,457.548 632.872,457.831C633.922,458.115 635.047,458.256 636.247,458.256C637.514,458.256 638.605,458.14 639.522,457.906C640.439,457.673 641.255,457.34 641.972,456.906C642.689,456.473 643.339,455.931 643.922,455.281C644.505,454.631 645.08,453.89 645.647,453.056L645.747,453.056C645.747,453.723 645.789,454.331 645.872,454.881C645.955,455.431 646.13,455.906 646.397,456.306C646.664,456.706 647.039,457.015 647.522,457.231C648.005,457.448 648.647,457.556 649.447,457.556C649.88,457.556 650.239,457.54 650.522,457.506C650.805,457.473 651.13,457.423 651.497,457.356L651.497,454.706C651.197,454.84 650.864,454.906 650.497,454.906C649.264,454.906 648.647,454.273 648.647,453.006L648.647,439.306C648.647,437.573 648.364,436.165 647.797,435.081C647.23,433.998 646.497,433.156 645.597,432.556C644.697,431.956 643.68,431.548 642.547,431.331C641.414,431.115 640.28,431.006 639.147,431.006C637.647,431.006 636.28,431.173 635.047,431.506C633.814,431.84 632.739,432.356 631.822,433.056C630.905,433.756 630.18,434.656 629.647,435.756C629.114,436.856 628.797,438.156 628.697,439.656ZM645.497,443.456L645.497,447.556C645.497,448.823 645.255,449.956 644.772,450.956C644.289,451.956 643.639,452.806 642.822,453.506C642.005,454.206 641.047,454.74 639.947,455.106C638.847,455.473 637.697,455.656 636.497,455.656C635.764,455.656 635.047,455.54 634.347,455.306C633.647,455.073 633.03,454.731 632.497,454.281C631.964,453.831 631.539,453.298 631.222,452.681C630.905,452.065 630.747,451.356 630.747,450.556C630.747,449.29 631.122,448.315 631.872,447.631C632.622,446.948 633.58,446.423 634.747,446.056C635.914,445.69 637.205,445.415 638.622,445.231C640.039,445.048 641.414,444.84 642.747,444.606C643.18,444.54 643.68,444.423 644.247,444.256C644.814,444.09 645.197,443.823 645.397,443.456L645.497,443.456Z" style="fill:rgb(47,41,43);fill-rule:nonzero;"/>
                </g>
                <g transform="matrix(0.695514,0,0,0.850088,6824.95,-141.966)">
                    <path d="M674.147,439.856L677.297,439.856C676.93,436.89 675.789,434.673 673.872,433.206C671.955,431.74 669.614,431.006 666.847,431.006C664.88,431.006 663.139,431.373 661.622,432.106C660.105,432.84 658.83,433.823 657.797,435.056C656.764,436.29 655.98,437.731 655.447,439.381C654.914,441.031 654.647,442.79 654.647,444.656C654.647,446.523 654.914,448.281 655.447,449.931C655.98,451.581 656.764,453.023 657.797,454.256C658.83,455.49 660.105,456.465 661.622,457.181C663.139,457.898 664.88,458.256 666.847,458.256C669.78,458.256 672.18,457.381 674.047,455.631C675.914,453.881 677.064,451.44 677.497,448.306L674.347,448.306C674.247,449.373 673.98,450.356 673.547,451.256C673.114,452.156 672.564,452.931 671.897,453.581C671.23,454.231 670.464,454.74 669.597,455.106C668.73,455.473 667.814,455.656 666.847,455.656C665.347,455.656 664.03,455.34 662.897,454.706C661.764,454.073 660.822,453.24 660.072,452.206C659.322,451.173 658.755,449.998 658.372,448.681C657.989,447.365 657.797,446.023 657.797,444.656C657.797,443.29 657.989,441.948 658.372,440.631C658.755,439.315 659.322,438.14 660.072,437.106C660.822,436.073 661.764,435.24 662.897,434.606C664.03,433.973 665.347,433.656 666.847,433.656C668.947,433.656 670.58,434.206 671.747,435.306C672.914,436.406 673.714,437.923 674.147,439.856Z" style="fill:rgb(47,41,43);fill-rule:nonzero;"/>
                </g>
                <g transform="matrix(0.695514,0,0,0.850088,6824.32,-141.966)">
                    <path d="M687.897,431.756L687.897,424.006L684.747,424.006L684.747,431.756L680.247,431.756L680.247,434.406L684.747,434.406L684.747,452.056C684.714,454.256 685.114,455.765 685.947,456.581C686.78,457.398 688.247,457.806 690.347,457.806C690.814,457.806 691.28,457.79 691.747,457.756C692.214,457.723 692.68,457.706 693.147,457.706L693.147,455.056C692.247,455.156 691.347,455.206 690.447,455.206C689.314,455.14 688.605,454.815 688.322,454.231C688.039,453.648 687.897,452.84 687.897,451.806L687.897,434.406L693.147,434.406L693.147,431.756L687.897,431.756Z" style="fill:rgb(47,41,43);fill-rule:nonzero;"/>
                </g>
                <g transform="matrix(0.695514,0,0,0.850088,6823.69,-141.966)">
                    <path d="M698.747,421.856L698.747,426.906L701.897,426.906L701.897,421.856L698.747,421.856ZM698.747,431.756L698.747,457.556L701.897,457.556L701.897,431.756L698.747,431.756Z" style="fill:rgb(47,41,43);fill-rule:nonzero;"/>
                </g>
                <g transform="matrix(0.695514,0,0,0.850088,6823.38,-141.966)">
                    <path d="M719.847,433.656C721.347,433.656 722.664,433.973 723.797,434.606C724.93,435.24 725.872,436.073 726.622,437.106C727.372,438.14 727.939,439.315 728.322,440.631C728.705,441.948 728.897,443.29 728.897,444.656C728.897,446.023 728.705,447.365 728.322,448.681C727.939,449.998 727.372,451.173 726.622,452.206C725.872,453.24 724.93,454.073 723.797,454.706C722.664,455.34 721.347,455.656 719.847,455.656C718.347,455.656 717.03,455.34 715.897,454.706C714.764,454.073 713.822,453.24 713.072,452.206C712.322,451.173 711.755,449.998 711.372,448.681C710.989,447.365 710.797,446.023 710.797,444.656C710.797,443.29 710.989,441.948 711.372,440.631C711.755,439.315 712.322,438.14 713.072,437.106C713.822,436.073 714.764,435.24 715.897,434.606C717.03,433.973 718.347,433.656 719.847,433.656ZM719.847,431.006C717.88,431.006 716.139,431.373 714.622,432.106C713.105,432.84 711.83,433.823 710.797,435.056C709.764,436.29 708.98,437.731 708.447,439.381C707.914,441.031 707.647,442.79 707.647,444.656C707.647,446.523 707.914,448.281 708.447,449.931C708.98,451.581 709.764,453.023 710.797,454.256C711.83,455.49 713.105,456.465 714.622,457.181C716.139,457.898 717.88,458.256 719.847,458.256C721.814,458.256 723.555,457.898 725.072,457.181C726.589,456.465 727.864,455.49 728.897,454.256C729.93,453.023 730.714,451.581 731.247,449.931C731.78,448.281 732.047,446.523 732.047,444.656C732.047,442.79 731.78,441.031 731.247,439.381C730.714,437.731 729.93,436.29 728.897,435.056C727.864,433.823 726.589,432.84 725.072,432.106C723.555,431.373 721.814,431.006 719.847,431.006Z" style="fill:rgb(47,41,43);fill-rule:nonzero;"/>
                </g>
                <g transform="matrix(0.695514,0,0,0.850088,6822.59,-141.966)">
                    <path d="M737.697,431.756L737.697,457.556L740.847,457.556L740.847,442.506C740.88,441.24 741.089,440.065 741.472,438.981C741.855,437.898 742.389,436.965 743.072,436.181C743.755,435.398 744.589,434.781 745.572,434.331C746.555,433.881 747.68,433.656 748.947,433.656C750.214,433.656 751.272,433.856 752.122,434.256C752.972,434.656 753.647,435.206 754.147,435.906C754.647,436.606 754.997,437.431 755.197,438.381C755.397,439.331 755.497,440.356 755.497,441.456L755.497,457.556L758.647,457.556L758.647,440.956C758.647,439.423 758.497,438.04 758.197,436.806C757.897,435.573 757.38,434.531 756.647,433.681C755.914,432.831 754.939,432.173 753.722,431.706C752.505,431.24 750.997,431.006 749.197,431.006C747.364,431.006 745.68,431.481 744.147,432.431C742.614,433.381 741.547,434.64 740.947,436.206L740.847,436.206L740.847,431.756L737.697,431.756Z" style="fill:rgb(47,41,43);fill-rule:nonzero;"/>
                </g>
                <g transform="matrix(0.695514,0,0,0.850088,6821.64,-141.966)">
                    <path d="M765.297,439.656L768.447,439.656C768.514,437.556 769.18,436.031 770.447,435.081C771.714,434.131 773.347,433.656 775.347,433.656C776.28,433.656 777.155,433.731 777.972,433.881C778.789,434.031 779.505,434.306 780.122,434.706C780.739,435.106 781.222,435.648 781.572,436.331C781.922,437.015 782.097,437.89 782.097,438.956C782.097,439.656 782.005,440.223 781.822,440.656C781.639,441.09 781.38,441.431 781.047,441.681C780.714,441.931 780.297,442.106 779.797,442.206C779.297,442.306 778.714,442.39 778.047,442.456C776.347,442.656 774.672,442.865 773.022,443.081C771.372,443.298 769.889,443.673 768.572,444.206C767.255,444.74 766.197,445.515 765.397,446.531C764.597,447.548 764.197,448.956 764.197,450.756C764.197,452.056 764.422,453.181 764.872,454.131C765.322,455.081 765.939,455.865 766.722,456.481C767.505,457.098 768.422,457.548 769.472,457.831C770.522,458.115 771.647,458.256 772.847,458.256C774.114,458.256 775.205,458.14 776.122,457.906C777.039,457.673 777.855,457.34 778.572,456.906C779.289,456.473 779.939,455.931 780.522,455.281C781.105,454.631 781.68,453.89 782.247,453.056L782.347,453.056C782.347,453.723 782.389,454.331 782.472,454.881C782.555,455.431 782.73,455.906 782.997,456.306C783.264,456.706 783.639,457.015 784.122,457.231C784.605,457.448 785.247,457.556 786.047,457.556C786.48,457.556 786.839,457.54 787.122,457.506C787.405,457.473 787.73,457.423 788.097,457.356L788.097,454.706C787.797,454.84 787.464,454.906 787.097,454.906C785.864,454.906 785.247,454.273 785.247,453.006L785.247,439.306C785.247,437.573 784.964,436.165 784.397,435.081C783.83,433.998 783.097,433.156 782.197,432.556C781.297,431.956 780.28,431.548 779.147,431.331C778.014,431.115 776.88,431.006 775.747,431.006C774.247,431.006 772.88,431.173 771.647,431.506C770.414,431.84 769.339,432.356 768.422,433.056C767.505,433.756 766.78,434.656 766.247,435.756C765.714,436.856 765.397,438.156 765.297,439.656ZM782.097,443.456L782.097,447.556C782.097,448.823 781.855,449.956 781.372,450.956C780.889,451.956 780.239,452.806 779.422,453.506C778.605,454.206 777.647,454.74 776.547,455.106C775.447,455.473 774.297,455.656 773.097,455.656C772.364,455.656 771.647,455.54 770.947,455.306C770.247,455.073 769.63,454.731 769.097,454.281C768.564,453.831 768.139,453.298 767.822,452.681C767.505,452.065 767.347,451.356 767.347,450.556C767.347,449.29 767.722,448.315 768.472,447.631C769.222,446.948 770.18,446.423 771.347,446.056C772.514,445.69 773.805,445.415 775.222,445.231C776.639,445.048 778.014,444.84 779.347,444.606C779.78,444.54 780.28,444.423 780.847,444.256C781.414,444.09 781.797,443.823 781.997,443.456L782.097,443.456Z" style="fill:rgb(47,41,43);fill-rule:nonzero;"/>
                </g>
                <g transform="matrix(0.695514,0,0,0.850088,6821.17,-141.966)">
                    <rect x="792.597" y="421.856" width="3.15" height="35.7" style="fill:rgb(47,41,43);fill-rule:nonzero;"/>
                </g>
                <g transform="matrix(0.695514,0,0,0.850088,6821.96,-141.966)">
                    <path d="M844.397,432.656L847.797,432.656C847.564,430.79 847.005,429.14 846.122,427.706C845.239,426.273 844.139,425.065 842.822,424.081C841.505,423.098 840.039,422.356 838.422,421.856C836.805,421.356 835.147,421.106 833.447,421.106C830.647,421.106 828.189,421.615 826.072,422.631C823.955,423.648 822.197,425.015 820.797,426.731C819.397,428.448 818.347,430.423 817.647,432.656C816.947,434.89 816.597,437.24 816.597,439.706C816.597,442.173 816.947,444.523 817.647,446.756C818.347,448.99 819.397,450.956 820.797,452.656C822.197,454.356 823.955,455.715 826.072,456.731C828.189,457.748 830.647,458.256 833.447,458.256C835.547,458.256 837.455,457.923 839.172,457.256C840.889,456.59 842.38,455.64 843.647,454.406C844.914,453.173 845.947,451.673 846.747,449.906C847.547,448.14 848.064,446.156 848.297,443.956L844.897,443.956C844.73,445.556 844.347,447.048 843.747,448.431C843.147,449.815 842.364,451.023 841.397,452.056C840.43,453.09 839.28,453.906 837.947,454.506C836.614,455.106 835.114,455.406 833.447,455.406C831.08,455.406 829.047,454.956 827.347,454.056C825.647,453.156 824.255,451.965 823.172,450.481C822.089,448.998 821.289,447.315 820.772,445.431C820.255,443.548 819.997,441.64 819.997,439.706C819.997,437.74 820.255,435.823 820.772,433.956C821.289,432.09 822.089,430.415 823.172,428.931C824.255,427.448 825.647,426.256 827.347,425.356C829.047,424.456 831.08,424.006 833.447,424.006C834.747,424.006 835.989,424.198 837.172,424.581C838.355,424.965 839.439,425.523 840.422,426.256C841.405,426.99 842.239,427.898 842.922,428.981C843.605,430.065 844.097,431.29 844.397,432.656Z" style="fill:rgb(47,41,43);fill-rule:nonzero;"/>
                </g>
                <g transform="matrix(0.695514,0,0,0.850088,6822.43,-141.966)">
                    <path d="M850.697,421.856L850.697,424.756L863.097,424.756L863.097,457.556L866.497,457.556L866.497,424.756L878.947,424.756L878.947,421.856L850.697,421.856Z" style="fill:rgb(47,41,43);fill-rule:nonzero;"/>
                </g>
                <g transform="matrix(0.695514,0,0,0.850088,6823.22,-141.966)">
                    <path d="M884.797,439.706C884.797,437.74 885.055,435.823 885.572,433.956C886.089,432.09 886.889,430.415 887.972,428.931C889.055,427.448 890.447,426.256 892.147,425.356C893.847,424.456 895.88,424.006 898.247,424.006C900.614,424.006 902.639,424.456 904.322,425.356C906.005,426.256 907.389,427.448 908.472,428.931C909.555,430.415 910.355,432.09 910.872,433.956C911.389,435.823 911.647,437.74 911.647,439.706C911.647,441.64 911.389,443.548 910.872,445.431C910.355,447.315 909.555,448.998 908.472,450.481C907.389,451.965 906.005,453.156 904.322,454.056C902.639,454.956 900.614,455.406 898.247,455.406C895.88,455.406 893.847,454.956 892.147,454.056C890.447,453.156 889.055,451.965 887.972,450.481C886.889,448.998 886.089,447.315 885.572,445.431C885.055,443.548 884.797,441.64 884.797,439.706ZM881.397,439.706C881.397,442.173 881.747,444.523 882.447,446.756C883.147,448.99 884.197,450.956 885.597,452.656C886.997,454.356 888.755,455.715 890.872,456.731C892.989,457.748 895.447,458.256 898.247,458.256C901.047,458.256 903.497,457.748 905.597,456.731C907.697,455.715 909.447,454.356 910.847,452.656C912.247,450.956 913.297,448.99 913.997,446.756C914.697,444.523 915.047,442.173 915.047,439.706C915.047,437.24 914.697,434.89 913.997,432.656C913.297,430.423 912.247,428.448 910.847,426.731C909.447,425.015 907.697,423.648 905.597,422.631C903.497,421.615 901.047,421.106 898.247,421.106C895.447,421.106 892.989,421.615 890.872,422.631C888.755,423.648 886.997,425.015 885.597,426.731C884.197,428.448 883.147,430.423 882.447,432.656C881.747,434.89 881.397,437.24 881.397,439.706Z" style="fill:rgb(47,41,43);fill-rule:nonzero;"/>
                </g>
                <g transform="matrix(0.695514,0,0,0.850088,6779.16,-179.013)">
                    <path d="M657.972,445.706L650.372,445.706C650.339,447.906 650.739,449.806 651.572,451.406C652.405,453.006 653.53,454.323 654.947,455.356C656.364,456.39 657.997,457.148 659.847,457.631C661.697,458.115 663.605,458.356 665.572,458.356C668.005,458.356 670.147,458.073 671.997,457.506C673.847,456.94 675.397,456.148 676.647,455.131C677.897,454.115 678.839,452.906 679.472,451.506C680.105,450.106 680.422,448.59 680.422,446.956C680.422,444.956 679.997,443.315 679.147,442.031C678.297,440.748 677.289,439.723 676.122,438.956C674.955,438.19 673.78,437.631 672.597,437.281C671.414,436.931 670.489,436.69 669.822,436.556C667.589,435.99 665.78,435.523 664.397,435.156C663.014,434.79 661.93,434.423 661.147,434.056C660.364,433.69 659.839,433.29 659.572,432.856C659.305,432.423 659.172,431.856 659.172,431.156C659.172,430.39 659.339,429.756 659.672,429.256C660.005,428.756 660.43,428.34 660.947,428.006C661.464,427.673 662.039,427.44 662.672,427.306C663.305,427.173 663.939,427.106 664.572,427.106C665.539,427.106 666.43,427.19 667.247,427.356C668.064,427.523 668.789,427.806 669.422,428.206C670.055,428.606 670.564,429.156 670.947,429.856C671.33,430.556 671.555,431.44 671.622,432.506L679.222,432.506C679.222,430.44 678.83,428.681 678.047,427.231C677.264,425.781 676.205,424.59 674.872,423.656C673.539,422.723 672.014,422.048 670.297,421.631C668.58,421.215 666.789,421.006 664.922,421.006C663.322,421.006 661.722,421.223 660.122,421.656C658.522,422.09 657.089,422.756 655.822,423.656C654.555,424.556 653.53,425.681 652.747,427.031C651.964,428.381 651.572,429.973 651.572,431.806C651.572,433.44 651.88,434.831 652.497,435.981C653.114,437.131 653.922,438.09 654.922,438.856C655.922,439.623 657.055,440.248 658.322,440.731C659.589,441.215 660.889,441.623 662.222,441.956C663.522,442.323 664.805,442.656 666.072,442.956C667.339,443.256 668.472,443.606 669.472,444.006C670.472,444.406 671.28,444.906 671.897,445.506C672.514,446.106 672.822,446.89 672.822,447.856C672.822,448.756 672.589,449.498 672.122,450.081C671.655,450.665 671.072,451.123 670.372,451.456C669.672,451.79 668.922,452.015 668.122,452.131C667.322,452.248 666.572,452.306 665.872,452.306C664.839,452.306 663.839,452.181 662.872,451.931C661.905,451.681 661.064,451.298 660.347,450.781C659.63,450.265 659.055,449.59 658.622,448.756C658.189,447.923 657.972,446.906 657.972,445.706Z" style="fill:rgb(47,41,43);fill-rule:nonzero;"/>
                </g>
                <g transform="matrix(0.695514,0,0,0.850088,6779.16,-179.013)">
                    <path d="M693.322,431.706L693.322,423.956L686.222,423.956L686.222,431.706L681.922,431.706L681.922,436.456L686.222,436.456L686.222,451.706C686.222,453.006 686.439,454.056 686.872,454.856C687.305,455.656 687.897,456.273 688.647,456.706C689.397,457.14 690.264,457.431 691.247,457.581C692.23,457.731 693.272,457.806 694.372,457.806C695.072,457.806 695.789,457.79 696.522,457.756C697.255,457.723 697.922,457.656 698.522,457.556L698.522,452.056C698.189,452.123 697.839,452.173 697.472,452.206C697.105,452.24 696.722,452.256 696.322,452.256C695.122,452.256 694.322,452.056 693.922,451.656C693.522,451.256 693.322,450.456 693.322,449.256L693.322,436.456L698.522,436.456L698.522,431.706L693.322,431.706Z" style="fill:rgb(47,41,43);fill-rule:nonzero;"/>
                </g>
                <g transform="matrix(0.695514,0,0,0.850088,6779.47,-179.013)">
                    <path d="M719.322,441.856L707.772,441.856C707.805,441.356 707.914,440.79 708.097,440.156C708.28,439.523 708.597,438.923 709.047,438.356C709.497,437.79 710.097,437.315 710.847,436.931C711.597,436.548 712.539,436.356 713.672,436.356C715.405,436.356 716.697,436.823 717.547,437.756C718.397,438.69 718.989,440.056 719.322,441.856ZM707.772,446.356L726.422,446.356C726.555,444.356 726.389,442.44 725.922,440.606C725.455,438.773 724.697,437.14 723.647,435.706C722.597,434.273 721.255,433.131 719.622,432.281C717.989,431.431 716.072,431.006 713.872,431.006C711.905,431.006 710.114,431.356 708.497,432.056C706.88,432.756 705.489,433.715 704.322,434.931C703.155,436.148 702.255,437.59 701.622,439.256C700.989,440.923 700.672,442.723 700.672,444.656C700.672,446.656 700.98,448.49 701.597,450.156C702.214,451.823 703.089,453.256 704.222,454.456C705.355,455.656 706.739,456.581 708.372,457.231C710.005,457.881 711.839,458.206 713.872,458.206C716.805,458.206 719.305,457.54 721.372,456.206C723.439,454.873 724.972,452.656 725.972,449.556L719.722,449.556C719.489,450.356 718.855,451.115 717.822,451.831C716.789,452.548 715.555,452.906 714.122,452.906C712.122,452.906 710.589,452.39 709.522,451.356C708.455,450.323 707.872,448.656 707.772,446.356Z" style="fill:rgb(47,41,43);fill-rule:nonzero;"/>
                </g>
                <g transform="matrix(0.695514,0,0,0.850088,6779,-179.013)">
                    <path d="M743.672,452.906C742.539,452.906 741.572,452.673 740.772,452.206C739.972,451.74 739.33,451.131 738.847,450.381C738.364,449.631 738.014,448.756 737.797,447.756C737.58,446.756 737.472,445.74 737.472,444.706C737.472,443.64 737.572,442.606 737.772,441.606C737.972,440.606 738.314,439.723 738.797,438.956C739.28,438.19 739.914,437.565 740.697,437.081C741.48,436.598 742.455,436.356 743.622,436.356C744.755,436.356 745.714,436.598 746.497,437.081C747.28,437.565 747.922,438.198 748.422,438.981C748.922,439.765 749.28,440.656 749.497,441.656C749.714,442.656 749.822,443.673 749.822,444.706C749.822,445.74 749.722,446.756 749.522,447.756C749.322,448.756 748.98,449.631 748.497,450.381C748.014,451.131 747.38,451.74 746.597,452.206C745.814,452.673 744.839,452.906 743.672,452.906ZM730.622,431.706L730.622,466.606L737.722,466.606L737.722,454.356L737.822,454.356C738.689,455.623 739.797,456.581 741.147,457.231C742.497,457.881 743.972,458.206 745.572,458.206C747.472,458.206 749.13,457.84 750.547,457.106C751.964,456.373 753.147,455.39 754.097,454.156C755.047,452.923 755.755,451.506 756.222,449.906C756.689,448.306 756.922,446.64 756.922,444.906C756.922,443.073 756.689,441.315 756.222,439.631C755.755,437.948 755.039,436.473 754.072,435.206C753.105,433.94 751.889,432.923 750.422,432.156C748.955,431.39 747.205,431.006 745.172,431.006C743.572,431.006 742.105,431.323 740.772,431.956C739.439,432.59 738.339,433.606 737.472,435.006L737.372,435.006L737.372,431.706L730.622,431.706Z" style="fill:rgb(47,41,43);fill-rule:nonzero;"/>
                </g>
                <g transform="matrix(0.695514,0,0,0.850088,6778.53,-179.013)">
                    <path d="M761.172,421.856L761.172,457.556L768.272,457.556L768.272,444.006C768.272,441.373 768.705,439.481 769.572,438.331C770.439,437.181 771.839,436.606 773.772,436.606C775.472,436.606 776.655,437.131 777.322,438.181C777.989,439.231 778.322,440.823 778.322,442.956L778.322,457.556L785.422,457.556L785.422,441.656C785.422,440.056 785.28,438.598 784.997,437.281C784.714,435.965 784.222,434.848 783.522,433.931C782.822,433.015 781.864,432.298 780.647,431.781C779.43,431.265 777.872,431.006 775.972,431.006C774.639,431.006 773.272,431.348 771.872,432.031C770.472,432.715 769.322,433.806 768.422,435.306L768.272,435.306L768.272,421.856L761.172,421.856Z" style="fill:rgb(47,41,43);fill-rule:nonzero;"/>
                </g>
                <g transform="matrix(0.695514,0,0,0.850088,6778.06,-179.013)">
                    <path d="M790.522,439.656C790.622,437.99 791.039,436.606 791.772,435.506C792.505,434.406 793.439,433.523 794.572,432.856C795.705,432.19 796.98,431.715 798.397,431.431C799.814,431.148 801.239,431.006 802.672,431.006C803.972,431.006 805.289,431.098 806.622,431.281C807.955,431.465 809.172,431.823 810.272,432.356C811.372,432.89 812.272,433.631 812.972,434.581C813.672,435.531 814.022,436.79 814.022,438.356L814.022,451.806C814.022,452.973 814.089,454.09 814.222,455.156C814.355,456.223 814.589,457.023 814.922,457.556L807.722,457.556C807.589,457.156 807.48,456.748 807.397,456.331C807.314,455.915 807.255,455.49 807.222,455.056C806.089,456.223 804.755,457.04 803.222,457.506C801.689,457.973 800.122,458.206 798.522,458.206C797.289,458.206 796.139,458.056 795.072,457.756C794.005,457.456 793.072,456.99 792.272,456.356C791.472,455.723 790.847,454.923 790.397,453.956C789.947,452.99 789.722,451.84 789.722,450.506C789.722,449.04 789.98,447.831 790.497,446.881C791.014,445.931 791.68,445.173 792.497,444.606C793.314,444.04 794.247,443.615 795.297,443.331C796.347,443.048 797.405,442.823 798.472,442.656C799.539,442.49 800.589,442.356 801.622,442.256C802.655,442.156 803.572,442.006 804.372,441.806C805.172,441.606 805.805,441.315 806.272,440.931C806.739,440.548 806.955,439.99 806.922,439.256C806.922,438.49 806.797,437.881 806.547,437.431C806.297,436.981 805.964,436.631 805.547,436.381C805.13,436.131 804.647,435.965 804.097,435.881C803.547,435.798 802.955,435.756 802.322,435.756C800.922,435.756 799.822,436.056 799.022,436.656C798.222,437.256 797.755,438.256 797.622,439.656L790.522,439.656ZM806.922,444.906C806.622,445.173 806.247,445.381 805.797,445.531C805.347,445.681 804.864,445.806 804.347,445.906C803.83,446.006 803.289,446.09 802.722,446.156C802.155,446.223 801.589,446.306 801.022,446.406C800.489,446.506 799.964,446.64 799.447,446.806C798.93,446.973 798.48,447.198 798.097,447.481C797.714,447.765 797.405,448.123 797.172,448.556C796.939,448.99 796.822,449.54 796.822,450.206C796.822,450.84 796.939,451.373 797.172,451.806C797.405,452.24 797.722,452.581 798.122,452.831C798.522,453.081 798.989,453.256 799.522,453.356C800.055,453.456 800.605,453.506 801.172,453.506C802.572,453.506 803.655,453.273 804.422,452.806C805.189,452.34 805.755,451.781 806.122,451.131C806.489,450.481 806.714,449.823 806.797,449.156C806.88,448.49 806.922,447.956 806.922,447.556L806.922,444.906Z" style="fill:rgb(47,41,43);fill-rule:nonzero;"/>
                </g>
                <g transform="matrix(0.695514,0,0,0.850088,6777.42,-179.013)">
                    <path d="M819.522,431.706L819.522,457.556L826.622,457.556L826.622,444.006C826.622,441.373 827.055,439.481 827.922,438.331C828.789,437.181 830.189,436.606 832.122,436.606C833.822,436.606 835.005,437.131 835.672,438.181C836.339,439.231 836.672,440.823 836.672,442.956L836.672,457.556L843.772,457.556L843.772,441.656C843.772,440.056 843.63,438.598 843.347,437.281C843.064,435.965 842.572,434.848 841.872,433.931C841.172,433.015 840.214,432.298 838.997,431.781C837.78,431.265 836.222,431.006 834.322,431.006C832.822,431.006 831.355,431.348 829.922,432.031C828.489,432.715 827.322,433.806 826.422,435.306L826.272,435.306L826.272,431.706L819.522,431.706Z" style="fill:rgb(47,41,43);fill-rule:nonzero;"/>
                </g>
                <g transform="matrix(0.695514,0,0,0.850088,6894.31,-179.021)">
                    <path d="M687.672,445.706L680.072,445.706C680.039,447.906 680.439,449.806 681.272,451.406C682.105,453.006 683.23,454.323 684.647,455.356C686.064,456.39 687.697,457.148 689.547,457.631C691.397,458.115 693.305,458.356 695.272,458.356C697.705,458.356 699.847,458.073 701.697,457.506C703.547,456.94 705.097,456.148 706.347,455.131C707.597,454.115 708.539,452.906 709.172,451.506C709.805,450.106 710.122,448.59 710.122,446.956C710.122,444.956 709.697,443.315 708.847,442.031C707.997,440.748 706.989,439.723 705.822,438.956C704.655,438.19 703.48,437.631 702.297,437.281C701.114,436.931 700.189,436.69 699.522,436.556C697.289,435.99 695.48,435.523 694.097,435.156C692.714,434.79 691.63,434.423 690.847,434.056C690.064,433.69 689.539,433.29 689.272,432.856C689.005,432.423 688.872,431.856 688.872,431.156C688.872,430.39 689.039,429.756 689.372,429.256C689.705,428.756 690.13,428.34 690.647,428.006C691.164,427.673 691.739,427.44 692.372,427.306C693.005,427.173 693.639,427.106 694.272,427.106C695.239,427.106 696.13,427.19 696.947,427.356C697.764,427.523 698.489,427.806 699.122,428.206C699.755,428.606 700.264,429.156 700.647,429.856C701.03,430.556 701.255,431.44 701.322,432.506L708.922,432.506C708.922,430.44 708.53,428.681 707.747,427.231C706.964,425.781 705.905,424.59 704.572,423.656C703.239,422.723 701.714,422.048 699.997,421.631C698.28,421.215 696.489,421.006 694.622,421.006C693.022,421.006 691.422,421.223 689.822,421.656C688.222,422.09 686.789,422.756 685.522,423.656C684.255,424.556 683.23,425.681 682.447,427.031C681.664,428.381 681.272,429.973 681.272,431.806C681.272,433.44 681.58,434.831 682.197,435.981C682.814,437.131 683.622,438.09 684.622,438.856C685.622,439.623 686.755,440.248 688.022,440.731C689.289,441.215 690.589,441.623 691.922,441.956C693.222,442.323 694.505,442.656 695.772,442.956C697.039,443.256 698.172,443.606 699.172,444.006C700.172,444.406 700.98,444.906 701.597,445.506C702.214,446.106 702.522,446.89 702.522,447.856C702.522,448.756 702.289,449.498 701.822,450.081C701.355,450.665 700.772,451.123 700.072,451.456C699.372,451.79 698.622,452.015 697.822,452.131C697.022,452.248 696.272,452.306 695.572,452.306C694.539,452.306 693.539,452.181 692.572,451.931C691.605,451.681 690.764,451.298 690.047,450.781C689.33,450.265 688.755,449.59 688.322,448.756C687.889,447.923 687.672,446.906 687.672,445.706Z" style="fill:rgb(47,41,43);fill-rule:nonzero;"/>
                </g>
                <g transform="matrix(0.695514,0,0,0.850088,6893.89,-179.021)">
                    <path d="M714.222,431.706L714.222,457.556L721.322,457.556L721.322,442.556C721.322,441.29 721.505,440.265 721.872,439.481C722.239,438.698 722.68,438.098 723.197,437.681C723.714,437.265 724.247,436.981 724.797,436.831C725.347,436.681 725.789,436.606 726.122,436.606C727.255,436.606 728.114,436.798 728.697,437.181C729.28,437.565 729.697,438.073 729.947,438.706C730.197,439.34 730.339,440.031 730.372,440.781C730.405,441.531 730.422,442.29 730.422,443.056L730.422,457.556L737.522,457.556L737.522,443.156C737.522,442.356 737.58,441.565 737.697,440.781C737.814,439.998 738.047,439.298 738.397,438.681C738.747,438.065 739.23,437.565 739.847,437.181C740.464,436.798 741.272,436.606 742.272,436.606C743.272,436.606 744.064,436.773 744.647,437.106C745.23,437.44 745.672,437.89 745.972,438.456C746.272,439.023 746.455,439.69 746.522,440.456C746.589,441.223 746.622,442.04 746.622,442.906L746.622,457.556L753.722,457.556L753.722,440.256C753.722,438.59 753.489,437.165 753.022,435.981C752.555,434.798 751.905,433.84 751.072,433.106C750.239,432.373 749.239,431.84 748.072,431.506C746.905,431.173 745.639,431.006 744.272,431.006C742.472,431.006 740.914,431.44 739.597,432.306C738.28,433.173 737.239,434.173 736.472,435.306C735.772,433.706 734.747,432.59 733.397,431.956C732.047,431.323 730.555,431.006 728.922,431.006C727.222,431.006 725.714,431.373 724.397,432.106C723.08,432.84 721.955,433.873 721.022,435.206L720.922,435.206L720.922,431.706L714.222,431.706Z" style="fill:rgb(47,41,43);fill-rule:nonzero;"/>
                </g>
                <g transform="matrix(0.695514,0,0,0.850088,6892.98,-179.021)">
                    <path d="M766.622,427.706L766.622,421.856L759.522,421.856L759.522,427.706L766.622,427.706ZM759.522,431.706L759.522,457.556L766.622,457.556L766.622,431.706L759.522,431.706Z" style="fill:rgb(47,41,43);fill-rule:nonzero;"/>
                </g>
                <g transform="matrix(0.695514,0,0,0.850088,6892.44,-179.021)">
                    <path d="M781.222,431.706L781.222,423.956L774.122,423.956L774.122,431.706L769.822,431.706L769.822,436.456L774.122,436.456L774.122,451.706C774.122,453.006 774.339,454.056 774.772,454.856C775.205,455.656 775.797,456.273 776.547,456.706C777.297,457.14 778.164,457.431 779.147,457.581C780.13,457.731 781.172,457.806 782.272,457.806C782.972,457.806 783.689,457.79 784.422,457.756C785.155,457.723 785.822,457.656 786.422,457.556L786.422,452.056C786.089,452.123 785.739,452.173 785.372,452.206C785.005,452.24 784.622,452.256 784.222,452.256C783.022,452.256 782.222,452.056 781.822,451.656C781.422,451.256 781.222,450.456 781.222,449.256L781.222,436.456L786.422,436.456L786.422,431.706L781.222,431.706Z" style="fill:rgb(47,41,43);fill-rule:nonzero;"/>
                </g>
                <g transform="matrix(0.695514,0,0,0.850088,6892.75,-179.021)">
                    <path d="M789.822,421.856L789.822,457.556L796.922,457.556L796.922,444.006C796.922,441.373 797.355,439.481 798.222,438.331C799.089,437.181 800.489,436.606 802.422,436.606C804.122,436.606 805.305,437.131 805.972,438.181C806.639,439.231 806.972,440.823 806.972,442.956L806.972,457.556L814.072,457.556L814.072,441.656C814.072,440.056 813.93,438.598 813.647,437.281C813.364,435.965 812.872,434.848 812.172,433.931C811.472,433.015 810.514,432.298 809.297,431.781C808.08,431.265 806.522,431.006 804.622,431.006C803.289,431.006 801.922,431.348 800.522,432.031C799.122,432.715 797.972,433.806 797.072,435.306L796.922,435.306L796.922,421.856L789.822,421.856Z" style="fill:rgb(47,41,43);fill-rule:nonzero;"/>
                </g>
                <g transform="matrix(2.96626,0,0,3.70733,5157.13,-1388.29)">
                    <path d="M664.244,441.125C663.069,440.416 662.138,439.533 661.449,438.477C660.489,437.004 660.008,435.437 660.008,433.777C660.008,432.247 660.358,430.778 661.058,429.37C661.758,427.962 662.767,426.705 664.086,425.598C665.371,424.508 666.962,423.633 668.858,422.974C670.755,422.315 672.834,421.985 675.096,421.985C676.984,421.985 678.856,422.258 680.712,422.803C682.567,423.348 683.934,423.873 684.813,424.378L686.644,422.913L688.768,422.913L686.229,434.729L684.129,434.729C683.918,433.346 683.613,432.044 683.214,430.823C682.815,429.602 682.266,428.504 681.566,427.527C680.882,426.583 680.032,425.83 679.015,425.269C677.997,424.707 676.773,424.426 675.34,424.426C673.355,424.426 671.699,424.98 670.372,426.087C669.046,427.193 668.382,428.585 668.382,430.261C668.382,431.433 668.781,432.459 669.579,433.338C670.376,434.217 671.638,434.981 673.363,435.633C674.372,436.007 675.43,436.393 676.537,436.792C677.643,437.191 678.701,437.602 679.711,438.025C681.558,438.79 683.024,439.823 684.108,441.125L664.244,441.125Z" style="fill:rgb(47,41,43);"/>
                </g>
                <g transform="matrix(0.387481,0,0,0.950086,6731.12,-1001.49)">
                    <path d="M1256.47,1243.08L1230.53,1314.23L1204.93,1314.23L1230.87,1243.08L1256.47,1243.08Z" style="fill:rgb(210,225,4);"/>
                </g>
            </g>
        </g>
    </g>
</svg>
